<svg width="36" height="36" viewBox="0 0 36 36" fill="none" xmlns="http://www.w3.org/2000/svg">
<mask id="mask0_966_5541" style="mask-type:luminance" maskUnits="userSpaceOnUse" x="0" y="0" width="36" height="36">
<path d="M0 0H36V36H0V0Z" fill="white"/>
</mask>
<g mask="url(#mask0_966_5541)">
<path d="M27.5625 0H8.4375C3.77761 0 0 3.77761 0 8.4375V27.5625C0 32.2224 3.77761 36 8.4375 36H27.5625C32.2224 36 36 32.2224 36 27.5625V8.4375C36 3.77761 32.2224 0 27.5625 0Z" fill="#F4F2ED"/>
<path fill-rule="evenodd" clip-rule="evenodd" d="M26.8695 27.4231C26.4097 28.1806 25.9498 28.7486 25.3952 29.2759C24.7731 29.8306 24.5973 30.3174 23.1635 30.507C22.1491 30.6964 21.27 30.3174 20.9318 30.1688C19.9173 29.6953 19.3897 29.5466 18.7812 29.5466C18.186 29.5466 17.6856 29.6954 16.6846 30.1553C16.3735 30.3174 15.535 30.6828 14.507 30.4935C13.452 30.3041 12.9109 29.8983 12.5187 29.5601C11.7072 28.8434 11.0984 28.167 10.5439 27.3826L26.8695 27.4231Z" fill="#00A0E2"/>
<path fill-rule="evenodd" clip-rule="evenodd" d="M8.25834 14.8035C8.73169 13.735 9.35381 13.0181 9.97608 12.5176C11.5585 11.2192 14.142 11.1381 15.3322 11.4492C16.3062 11.6926 16.9959 12.2877 18.0915 12.2877C19.2412 12.2877 19.9038 11.7061 20.8102 11.4492C22.0005 11.1516 24.5974 11.2462 26.2882 12.5446C26.7886 12.9235 27.2482 13.4374 27.5053 13.7215C26.8968 14.1679 26.5314 14.4924 26.2339 14.8035H8.25834Z" fill="#34BE2D"/>
<path fill-rule="evenodd" clip-rule="evenodd" d="M26.234 14.8037C25.95 15.1148 25.7472 15.4125 25.5171 15.8317C25.2468 16.3187 24.922 16.9814 24.8408 17.9823H7.4603C7.4738 17.82 7.4873 17.6442 7.5143 17.4683C7.67672 16.3998 7.93364 15.5206 8.2582 14.8037H26.234Z" fill="#FFB400"/>
<path fill-rule="evenodd" clip-rule="evenodd" d="M24.8408 17.9822C24.8273 18.2886 24.8273 18.5955 24.8408 18.902C24.8815 19.6459 25.1384 20.471 25.4766 21.1337L7.79836 21.0931C7.55494 20.0246 7.41966 18.929 7.4603 17.9822H24.8408Z" fill="#FF7A00"/>
<path fill-rule="evenodd" clip-rule="evenodd" d="M25.4765 21.1338C25.6149 21.4207 25.7826 21.6927 25.9768 21.9453C27.1401 23.4331 27.6405 23.4331 28.5467 23.8931C28.4794 24.0551 28.4252 24.2042 28.3575 24.3394L8.82633 24.2988C8.44762 23.4738 8.05542 22.3105 7.79836 21.0933L25.4765 21.1338Z" fill="#F41E34"/>
<path fill-rule="evenodd" clip-rule="evenodd" d="M28.3575 24.3395C27.7895 25.665 27.3295 26.6385 26.8695 27.4232L10.5442 27.3827C10.0031 26.5847 9.51623 25.7054 8.96161 24.6097C8.92111 24.5151 8.86697 24.4068 8.82633 24.2988L28.3575 24.3395Z" fill="#A2359C"/>
<path fill-rule="evenodd" clip-rule="evenodd" d="M22.6901 7.40503C22.5953 8.08144 22.2573 8.94698 21.7163 9.50147C21.1344 10.1237 20.2283 10.8 19.6872 11.1382C19.3897 11.3275 18.6186 11.3545 17.9831 11.4223C17.902 10.8541 17.8885 10.3672 18.0643 9.83967C18.2942 9.21755 18.592 8.32486 19.0652 7.70259C19.6467 6.93169 20.3095 6.4042 20.6747 6.21478C21.1618 5.97136 21.9734 5.60616 22.6766 5.48438C22.7038 6.1065 22.7985 6.80991 22.6901 7.40503Z" fill="#34BE2D"/>
</g>
</svg>
