<svg width="28" height="28" viewBox="0 0 28 28" fill="none" xmlns="http://www.w3.org/2000/svg">
<path d="M25.6668 14.0002C25.6668 17.0944 24.4377 20.0618 22.2497 22.2497C20.0618 24.4377 17.0944 25.6668 14.0002 25.6668C12.4681 25.6668 10.951 25.3651 9.53552 24.7788C8.12006 24.1925 6.83393 23.3331 5.75058 22.2497C3.56266 20.0618 2.3335 17.0944 2.3335 14.0002C2.3335 10.906 3.56266 7.93851 5.75058 5.75058C7.93851 3.56266 10.906 2.3335 14.0002 2.3335C15.5323 2.3335 17.0493 2.63526 18.4648 3.22157C19.8803 3.80787 21.1664 4.66723 22.2497 5.75058C23.3331 6.83393 24.1925 8.12006 24.7788 9.53552C25.3651 10.951 25.6668 12.4681 25.6668 14.0002ZM7.00016 15.1668H16.3335L12.2502 19.2502L13.9068 20.9068L20.8135 14.0002L13.9068 7.0935L12.2502 8.75016L16.3335 12.8335H7.00016V15.1668Z" fill="#62ADAD"/>
</svg>
