<svg width="28" height="28" viewBox="0 0 28 28" fill="none" xmlns="http://www.w3.org/2000/svg">
<path d="M25.6666 14.0002C25.6666 17.0944 24.4374 20.0618 22.2495 22.2497C20.0616 24.4377 17.0941 25.6668 13.9999 25.6668C12.4678 25.6668 10.9507 25.3651 9.53528 24.7788C8.11981 24.1925 6.83369 23.3331 5.75034 22.2497C3.56242 20.0618 2.33325 17.0944 2.33325 14.0002C2.33325 10.906 3.56242 7.93851 5.75034 5.75058C7.93826 3.56266 10.9057 2.3335 13.9999 2.3335C15.532 2.3335 17.0491 2.63526 18.4646 3.22157C19.88 3.80787 21.1661 4.66723 22.2495 5.75058C23.3328 6.83393 24.1922 8.12006 24.7785 9.53552C25.3648 10.951 25.6666 12.4681 25.6666 14.0002ZM6.99992 15.1668H16.3333L12.2499 19.2502L13.9066 20.9068L20.8133 14.0002L13.9066 7.0935L12.2499 8.75016L16.3333 12.8335H6.99992V15.1668Z" fill="#FEB939"/>
</svg>
