<svg width="24" height="24" viewBox="0 0 24 24" fill="none" xmlns="http://www.w3.org/2000/svg">
<path d="M10.5898 13.4099C10.9998 13.7999 10.9998 14.4399 10.5898 14.8299C10.1998 15.2199 9.55982 15.2199 9.16982 14.8299C7.21982 12.8799 7.21982 9.70995 9.16982 7.75995L12.7098 4.21995C14.6598 2.26995 17.8298 2.26995 19.7798 4.21995C21.7298 6.16995 21.7298 9.33995 19.7798 11.2899L18.2898 12.7799C18.2998 11.9599 18.1698 11.1399 17.8898 10.3599L18.3598 9.87995C19.5398 8.70995 19.5398 6.80995 18.3598 5.63995C17.1898 4.45995 15.2898 4.45995 14.1198 5.63995L10.5898 9.16995C9.40982 10.3399 9.40982 12.2399 10.5898 13.4099ZM13.4098 9.16995C13.7998 8.77995 14.4398 8.77995 14.8298 9.16995C16.7798 11.1199 16.7798 14.2899 14.8298 16.2399L11.2898 19.7799C9.33982 21.7299 6.16982 21.7299 4.21982 19.7799C2.26982 17.8299 2.26982 14.6599 4.21982 12.7099L5.70982 11.2199C5.69982 12.0399 5.82982 12.8599 6.10982 13.6499L5.63982 14.1199C4.45982 15.2899 4.45982 17.1899 5.63982 18.3599C6.80982 19.5399 8.70982 19.5399 9.87982 18.3599L13.4098 14.8299C14.5898 13.6599 14.5898 11.7599 13.4098 10.5899C12.9998 10.1999 12.9998 9.55995 13.4098 9.16995Z" fill="#D9D9D9"/>
</svg>
