<svg width="24" height="24" viewBox="0 0 24 24" fill="none" xmlns="http://www.w3.org/2000/svg">
<path d="M19 9L15 13H18C18 14.5913 17.3679 16.1174 16.2426 17.2426C15.1174 18.3679 13.5913 19 12 19C11 19 10.03 18.75 9.2 18.3L7.74 19.76C8.97 20.54 10.43 21 12 21C14.1217 21 16.1566 20.1571 17.6569 18.6569C19.1571 17.1566 20 15.1217 20 13H23M6 13C6 11.4087 6.63214 9.88258 7.75736 8.75736C8.88258 7.63214 10.4087 7 12 7C13 7 13.97 7.25 14.8 7.7L16.26 6.24C15.03 5.46 13.57 5 12 5C9.87827 5 7.84344 5.84285 6.34315 7.34315C4.84285 8.84344 4 10.8783 4 13H1L5 17L9 13" fill="#5DA7A7"/>
</svg>
