<svg width="36" height="36" viewBox="0 0 36 36" fill="none" xmlns="http://www.w3.org/2000/svg">
<path d="M27.5625 0H8.4375C3.7776 0 0 3.7776 0 8.4375V27.5625C0 32.2224 3.7776 36 8.4375 36H27.5625C32.2224 36 36 32.2224 36 27.5625V8.4375C36 3.7776 32.2224 0 27.5625 0Z" fill="#F4F2ED"/>
<path d="M5.85506 28.5523H10.3295V17.6858L3.9375 12.8918V26.6347C3.9375 27.6957 4.79728 28.5523 5.85506 28.5523Z" fill="#4285F4"/>
<path d="M25.6704 28.5524H30.1449C31.206 28.5524 32.0625 27.6926 32.0625 26.6348V12.8918L25.6704 17.6859" fill="#34A853"/>
<path d="M25.6704 9.37628V17.686L32.0625 12.892V10.3349C32.0625 7.96356 29.3555 6.61159 27.4603 8.03387" fill="#FBBC04"/>
<path d="M10.3296 17.6858V9.37626L18 15.1288L25.6704 9.37598V17.6856L18 23.4386" fill="#EA4335"/>
<path d="M3.9375 10.3349V12.8918L10.3295 17.6858V9.37628L8.53973 8.03387C6.6413 6.61159 3.9375 7.96356 3.9375 10.3349Z" fill="#C5221F"/>
</svg>
