<svg width="36" height="36" viewBox="0 0 36 36" fill="none" xmlns="http://www.w3.org/2000/svg">
<path d="M28.095 8.1149L26.175 9.6149L18 15.6899L9.825 9.5549L7.905 8.0549C7.45268 7.68072 6.90052 7.44746 6.31693 7.38402C5.73334 7.32059 5.14396 7.42977 4.62181 7.69803C4.09966 7.96629 3.66769 8.38184 3.37941 8.89321C3.09113 9.40458 2.95921 9.98929 3 10.5749V27.9599C3 28.5009 3.21493 29.0198 3.5975 29.4024C3.98008 29.785 4.49896 29.9999 5.04 29.9999H9.825V18.4199L18 24.5549L26.175 18.4199V29.9999H30.96C31.501 29.9999 32.0199 29.785 32.4025 29.4024C32.7851 29.0198 33 28.5009 33 27.9599V10.5749C33.0282 9.99434 32.8871 9.4181 32.5939 8.91623C32.3007 8.41436 31.868 8.00847 31.3484 7.7479C30.8289 7.48732 30.2448 7.38329 29.6672 7.44844C29.0897 7.5136 28.5435 7.74513 28.095 8.1149Z" fill="#343A40"/>
</svg>
