<svg width="24" height="24" viewBox="0 0 24 24" fill="none" xmlns="http://www.w3.org/2000/svg">
<path d="M9.74983 20.85C11.5298 20.15 11.1398 18.22 10.2398 17C9.34983 15.75 8.11983 14.89 6.87983 14.06C5.99983 13.5 5.18983 12.8 4.53983 12C4.25983 11.67 3.68983 11.06 4.26983 10.94C4.85983 10.82 5.87983 11.4 6.39983 11.62C7.30983 12 8.20983 12.44 9.04983 12.96L10.0598 11.26C8.49983 10.23 6.49983 9.32 4.63983 9.05C3.57983 8.89 2.45983 9.11 2.09983 10.26C1.77983 11.25 2.28983 12.25 2.86983 13.03C4.23983 14.86 6.36983 15.74 7.95983 17.32C8.29983 17.65 8.70983 18.04 8.90983 18.5C9.11983 18.94 9.06983 18.97 8.59983 18.97C7.35983 18.97 5.80983 18 4.79983 17.36L3.78983 19.06C5.31983 20 7.87983 21.47 9.74983 20.85ZM18.9598 7.33L13.2898 13H10.9998V10.71L16.6698 5.03L18.9598 7.33ZM22.3598 6.55C22.3498 6.85 22.0398 7.16 21.7198 7.47L19.1998 10L18.3298 9.13L20.9298 6.54L20.3398 5.95L19.6698 6.62L17.3798 4.33L19.5298 2.18C19.7698 1.94 20.1598 1.94 20.3898 2.18L21.8198 3.61C22.0598 3.83 22.0598 4.23 21.8198 4.47C21.6098 4.68 21.4098 4.88 21.4098 5.08C21.3898 5.28 21.5898 5.5 21.7898 5.67C22.0798 5.97 22.3698 6.25 22.3598 6.55Z" fill="#5DA7A7"/>
</svg>
