<svg width="18" height="14" viewBox="0 0 18 14" fill="none" xmlns="http://www.w3.org/2000/svg">
<path d="M17.1483 1.70478C16.5062 1.98929 15.8251 2.17601 15.1276 2.25875C15.8541 1.82334 16.4119 1.13386 16.6745 0.312346C15.9839 0.722134 15.2284 1.01087 14.4405 1.16608C13.7987 0.482355 12.8844 0.0550537 11.8725 0.0550537C9.92948 0.0550537 8.35418 1.63029 8.35418 3.57314C8.35418 3.84892 8.38533 4.1174 8.44528 4.37496C5.52136 4.22819 2.92901 2.82759 1.19375 0.699054C0.890976 1.21866 0.717483 1.82307 0.717483 2.46774C0.717483 3.68836 1.33864 4.76515 2.2826 5.39609C1.7239 5.37862 1.17749 5.22772 0.689014 4.95599C0.688836 4.97073 0.688769 4.98549 0.688813 5.00027C0.688813 6.70485 1.90152 8.12682 3.51092 8.45003C2.99284 8.59091 2.44942 8.61153 1.92215 8.51032C2.36982 9.90804 3.66914 10.9251 5.2086 10.9536C4.00454 11.8972 2.48751 12.4597 0.839263 12.4597C0.555244 12.4597 0.275244 12.443 0 12.4105C1.55695 13.4087 3.40622 13.9911 5.39301 13.9911C11.8643 13.9911 15.4029 8.63022 15.4029 3.98115C15.4029 3.82856 15.3996 3.67683 15.3928 3.52598C16.0815 3.02801 16.676 2.4113 17.1483 1.70478Z" fill="#55ACEE"/>
</svg>
