<svg width="15" height="14" viewBox="0 0 15 14" fill="none" xmlns="http://www.w3.org/2000/svg">
<path d="M12.0771 11.9289H10.0027V8.68025C10.0027 7.9056 9.98891 6.90838 8.92387 6.90838C7.84346 6.90838 7.67814 7.75242 7.67814 8.62387V11.9286H5.60384V5.24823H7.59518V6.16118H7.62307C7.82237 5.82044 8.11035 5.54012 8.45635 5.35009C8.80235 5.16006 9.1934 5.06742 9.58788 5.08203C11.6903 5.08203 12.078 6.46497 12.078 8.26408L12.0771 11.9289ZM3.26322 4.33511C2.59838 4.33522 2.05933 3.79633 2.05922 3.1315C2.05911 2.46666 2.59795 1.9276 3.26278 1.9275C3.92762 1.92733 4.46667 2.46622 4.46678 3.13106C4.46684 3.45033 4.34007 3.75654 4.11436 3.98234C3.88865 4.20815 3.58249 4.33504 3.26322 4.33511ZM4.30042 11.9289H2.22388V5.24823H4.30037L4.30042 11.9289ZM13.1112 0.00101893H1.18154C0.617711 -0.00532482 0.155328 0.446339 0.148438 1.01017V12.9896C0.155109 13.5537 0.617437 14.0058 1.18148 13.9999H13.1112C13.6765 14.0069 14.1406 13.5548 14.1484 12.9896V1.00924C14.1404 0.444316 13.6762 -0.00729357 13.1112 8.92441e-05" fill="#0A66C2"/>
</svg>
