<svg width="24" height="24" viewBox="0 0 24 24" fill="none" xmlns="http://www.w3.org/2000/svg">
<path fill-rule="evenodd" clip-rule="evenodd" d="M15.2654 14H14.5L14.2288 13.73C15.1782 12.59 15.7498 11.11 15.7498 9.5C15.7498 5.91 12.9306 3 9.45253 3C5.97451 3 3.15527 5.91 3.15527 9.5C3.15527 13.09 5.97451 16 9.45253 16C11.0123 16 12.4462 15.41 13.5506 14.43L13.8122 14.71V15.5L18.6562 20.49L20.0997 19L15.2654 14ZM9.45253 14C7.0402 14 5.09289 11.99 5.09289 9.5C5.09289 7.01 7.0402 5 9.45253 5C11.8649 5 13.8122 7.01 13.8122 9.5C13.8122 11.99 11.8649 14 9.45253 14Z" fill="black" fill-opacity="0.74"/>
</svg>
