<svg width="24" height="24" viewBox="0 0 24 24" fill="none" xmlns="http://www.w3.org/2000/svg">
<path fill-rule="evenodd" clip-rule="evenodd" d="M15.7654 14H15L14.7288 13.73C15.6782 12.59 16.2498 11.11 16.2498 9.5C16.2498 5.91 13.4306 3 9.95253 3C6.47451 3 3.65527 5.91 3.65527 9.5C3.65527 13.09 6.47451 16 9.95253 16C11.5123 16 12.9462 15.41 14.0506 14.43L14.3122 14.71V15.5L19.1562 20.49L20.5997 19L15.7654 14ZM9.95253 14C7.5402 14 5.59289 11.99 5.59289 9.5C5.59289 7.01 7.5402 5 9.95253 5C12.3649 5 14.3122 7.01 14.3122 9.5C14.3122 11.99 12.3649 14 9.95253 14Z" fill="white" fill-opacity="0.74"/>
</svg>
