<svg width="25" height="24" viewBox="0 0 25 24" fill="none" xmlns="http://www.w3.org/2000/svg">
<path fill-rule="evenodd" clip-rule="evenodd" d="M18.2173 16.08C17.4534 16.08 16.7699 16.38 16.2472 16.85L9.08026 12.7C9.13051 12.47 9.17072 12.24 9.17072 12C9.17072 11.76 9.13051 11.53 9.08026 11.3L16.1668 7.19C16.7096 7.69 17.4232 8 18.2173 8C19.8859 8 21.2329 6.66 21.2329 5C21.2329 3.34 19.8859 2 18.2173 2C16.5487 2 15.2018 3.34 15.2018 5C15.2018 5.24 15.242 5.47 15.2923 5.7L8.20575 9.81C7.66295 9.31 6.94928 9 6.15518 9C4.48659 9 3.13965 10.34 3.13965 12C3.13965 13.66 4.48659 15 6.15518 15C6.94928 15 7.66295 14.69 8.20575 14.19L15.3626 18.35C15.3124 18.56 15.2822 18.78 15.2822 19C15.2822 20.61 16.599 21.92 18.2173 21.92C19.8357 21.92 21.1525 20.61 21.1525 19C21.1525 17.39 19.8357 16.08 18.2173 16.08Z" fill="black" fill-opacity="0.74"/>
</svg>
